PathFileType	4	(X/Y/Z)	Patient4_TMGait_0pt6_02_right_48.trc.trc
DataRate	CameraRate	NumFrames	NumMarkers	Units	OrigDataRate	OrigDataStartFrame	OrigNumFrames
82.352941176470	82.352941176470	6	33	mm	82.352941176470	36	       141
Frame#	Time	Sacral			L.Shoulder			Chest			R.Shoulder			Neck			R.ASIS			L.ASIS			R.Thigh.Superior			R.Thigh.Lateral			R.Thigh.Inferior			R.Patella			L.Thigh.Superior			L.Thigh.Lateral			L.Thigh.Inferior			L.Patella			L.Shank.Superior			L.Shank.Lateral			L.Shank.Inferior			R.Shank.Superior			R.Shank.Lateral			R.Shank.Inferior			R.Heel			R.Midfoot.Superior			R.Midfoot.Lateral			R.Toe			L.Heel			L.Midfoot.Lateral			L.Midfoot.Superior			L.Toe			L.Elbow			L.Wrist			R.Elbow			R.Wrist			
		X1	Y1	Z1	X2	Y2	Z2	X3	Y3	Z3	X4	Y4	Z4	X5	Y5	Z5	X6	Y6	Z6	X7	Y7	Z7	X8	Y8	Z8	X9	Y9	Z9	X10	Y10	Z10	X11	Y11	Z11	X12	Y12	Z12	X13	Y13	Z13	X14	Y14	Z14	X15	Y15	Z15	X16	Y16	Z16	X17	Y17	Z17	X18	Y18	Z18	X19	Y19	Z19	X20	Y20	Z20	X21	Y21	Z21	X22	Y22	Z22	X23	Y23	Z23	X24	Y24	Z24	X25	Y25	Z25	X26	Y26	Z26	X27	Y27	Z27	X28	Y28	Z28	X29	Y29	Z29	X30	Y30	Z30	X31	Y31	Z31	X32	Y32	Z32	X33	Y33	Z33	

36	58.365000000000	888.073684096084	1011.356345498685	516.094249037970	1107.134521004706	1427.934122626141	345.680822284112	1199.422582857519	1342.779604976115	505.393985265948	1122.999697640052	1424.610667686554	677.324160871773	1113.418421355859	1486.079278670016	496.005655718297	1112.952106120494	934.029164500893	634.735041667257	1096.447382350348	954.649406857472	360.514481237042	1171.441228496193	748.550823386948	603.243647780983	1101.547625811247	634.420083025654	660.776537797156	1185.181855535280	590.424724979639	580.943833787684	1195.651434596645	501.168611611298	587.112104439849	1141.264447196040	742.707994706267	385.794374729090	1057.585547923736	626.528646760892	320.401282962291	1144.085901163211	542.843035914308	380.174489391514	1136.925664073711	456.155413057177	379.619834928206	1067.281783087636	399.256737190360	373.961801285310	928.292576693082	356.430594951076	322.202708983715	911.716432718670	231.300651695785	382.559404984018	1170.912606644357	411.289524770727	593.876335819115	1104.747356706913	303.801715088015	655.520226717693	1153.066267711874	211.699744512119	591.247839633529	1026.482458058316	43.759979974484	561.588125285906	1199.256410509520	99.563579827035	591.985986518511	1113.227028514421	37.533814326073	632.232050441061	1320.418982056859	46.206588850404	611.267489905200	718.773071295250	158.153913367180	416.965808082647	780.644063968096	126.208371937658	333.786966866760	883.995396781454	138.766874045716	358.138804024146	969.647528920045	40.374018311895	319.960698311731	1158.393602548018	1097.858515329509	203.519662268332	1402.687397398952	1052.903828782776	264.119260451674	1000.815429757848	1096.282938511245	788.677284477571	992.667637564569	833.866762157686	788.227603745694	
37	58.377142857143	887.209118876954	1012.662891456831	518.714305866672	1104.698288418624	1429.484739142589	347.391736115329	1198.555999491716	1344.071354850009	506.052329988933	1123.654537829840	1425.401327237503	678.901437279122	1112.419605312364	1487.289888528023	497.863543891189	1112.660705127731	935.389562141254	635.890980806880	1094.912145683189	955.579590821833	362.311100929262	1168.621333439605	747.799105009208	605.833033291258	1097.190323460750	634.678462624089	662.631352780855	1180.461352045841	589.924869769708	582.780774345480	1189.737692784396	500.821735212900	588.689691634168	1144.051097694098	746.423296581507	387.231719348917	1064.309019273619	628.481212323611	320.990046270829	1153.603158564055	546.784787731636	380.173897094227	1147.868664871000	459.097139830012	378.873610982472	1077.074403920367	401.964142161807	373.541498780270	936.222101719506	362.516943140416	323.676198097455	917.879262949872	237.330098195883	383.196170453991	1164.802348440227	411.233110192020	595.316882886527	1098.130855037702	303.882217370775	656.544548838443	1146.244325734968	211.768555556892	592.125415947096	1019.181911023043	43.879305398835	561.838341683502	1192.118279683380	99.566506319308	592.391713177380	1105.939695946260	37.454405957979	632.436180046663	1313.162835662104	45.944129171670	611.475443150139	723.735763580322	168.709809114710	420.098957998172	783.409076851858	136.284526665319	335.401365961416	887.727322387304	145.384061235132	358.334492800430	969.827423719674	43.765821659863	317.081048871478	1150.482613149486	1096.860423429406	207.109212518447	1392.978322426626	1039.580322077688	266.671596111363	1011.267452528094	1093.500049157839	792.503364800137	1015.121803663979	830.807757164186	792.301489112069	
38	58.389285714286	886.234985639432	1013.840523288153	521.144122403014	1102.054166971039	1430.840581675589	348.877961091219	1197.513642039507	1345.282708721592	506.501534338431	1124.099154876995	1426.105260065351	680.243136266670	1111.167436872004	1488.384712599785	499.499644487760	1112.149526689290	936.618166340931	637.105059836605	1093.598140591080	956.512327385215	364.021898274360	1165.730122392330	747.049192602415	608.378419365616	1092.825525716033	634.866519824163	664.431816519658	1175.716061578457	589.398130322664	584.538344478921	1183.830206190938	500.460474663936	590.240022286725	1146.620192135004	750.128110543752	388.636241750509	1070.769013129576	630.742212404037	321.322383553618	1162.641221389041	551.074749627602	380.006224161783	1158.506366699053	462.559753993980	377.960501314035	1086.927194642790	404.988675608861	372.827701498673	944.560994979573	368.196204988887	324.705547695166	925.024426500046	242.882733712659	383.416099994726	1158.720004638290	411.122190273314	596.683673444641	1091.528186211164	303.903533785345	657.472214516628	1139.421813159091	211.778877200419	592.931508007979	1011.827854206414	43.983439453177	562.057690921414	1184.931372794171	99.509555596523	592.742598365972	1098.592445902920	37.358896054686	632.611691182641	1305.858774747257	45.621717237035	611.656424289402	730.173014210976	177.519016297523	422.647407675818	787.951005948904	145.043103614435	336.545832846908	892.977472698611	151.555716923279	358.126997142800	972.320218787776	47.633461863298	314.012476442531	1142.203829023153	1095.778845578686	210.382105822630	1382.144692756629	1025.354011452281	268.620385990104	1022.057332826885	1090.920164819845	796.183233335070	1038.476177654806	828.502100427255	796.160963888174	
39	58.401428571429	885.157116156245	1014.874322336227	523.388563210763	1099.288588017555	1431.970072690081	350.144586097756	1196.317753121117	1346.372821828415	506.783502296690	1124.345854270286	1426.735430372617	681.359094001831	1109.722844745279	1489.350515193062	500.906278705283	1111.426057872392	937.700532100403	638.396703754781	1092.517479189213	957.509960979873	365.569216386466	1162.850054725167	746.356785622992	610.761405072208	1088.544045148129	635.003038132560	666.122626179704	1171.025924820703	588.857958942584	586.153837555887	1178.019384669776	500.090497088553	591.689175695153	1148.953655818752	753.827273609463	390.016550043305	1076.929464822950	633.297623751400	321.431163605264	1171.154196490870	555.676159432070	379.723016530604	1168.792657017882	466.507862843876	376.926432096977	1096.809635392013	408.289040213539	371.886086961847	953.325199680254	373.293032911267	325.223246343073	933.212216293417	247.773926738531	383.187024092502	1152.743384427301	410.962317301687	597.919149386177	1085.023819544002	303.884554037729	658.276938009205	1132.650284533954	211.737807826930	593.631379726170	1004.446117591362	44.080269291906	562.252716064723	1177.716561278812	99.415958331699	593.034287099347	1091.213548209407	37.268772814521	632.764719470304	1298.531700976449	45.270004511434	611.814930470064	738.086338579121	184.310110186980	424.380457260845	794.395894897194	152.126582536650	337.090268791589	899.889126130853	156.987795926321	357.500246644549	977.381239561481	51.689730111888	310.947706304087	1133.589424866905	1094.588268090851	213.375809851765	1370.100461364841	1010.337773663701	269.929083649954	1033.169516833391	1088.588271548705	799.669164477436	1062.677822439260	827.103729736913	799.665495651812	
40	58.413571428571	883.983150247771	1015.753586055676	525.465552950753	1096.474539372475	1432.855645237219	351.205380565867	1194.987637566819	1347.312288159165	506.941529973997	1124.409784082678	1427.307889714948	682.269284901310	1108.143956901303	1490.179100132628	502.085011076048	1110.505328706018	938.626104610464	639.754888427149	1091.651318955815	958.620560974501	366.894115104509	1160.034549548622	745.744805238067	612.892155896021	1084.397933338254	635.098207607248	667.654023914507	1166.439117572119	588.310316303211	587.575297723120	1172.361689325883	499.711026278628	592.964814927022	1151.044247230075	757.535099750307	391.380135054146	1082.780037976508	636.121856960160	321.358222293948	1179.126045178473	560.543389103830	379.383877796419	1178.697393841275	470.895076823087	375.835596091459	1106.700002745360	411.817696955285	370.796266734017	962.527419576376	377.659495200158	325.199992629229	942.485422799306	251.855826561670	382.507750167845	1146.917634890579	410.756295927438	598.972283992005	1078.671391632671	303.838502222857	658.935992505950	1125.962564738746	211.650800680127	594.194057147719	997.059180342659	44.172609746707	562.424507438276	1170.489599909460	99.305146598970	593.265028276571	1083.826422316012	37.199119395087	632.898455006975	1291.201495104941	44.914558844164	611.955800940565	747.470881122787	188.904750374397	425.145276645245	802.819835562613	157.280285391822	336.950243313053	908.564199314737	161.437616779498	356.458792288279	985.168373775391	55.636267951546	308.031176519898	1124.667744078718	1093.282574002812	216.140532964159	1356.758959235019	994.669271073010	270.577774413996	1044.566921058500	1086.555729339898	802.926100072404	1087.674551663629	826.776672747022	802.666625982912	
41	58.425714285714	882.721099729267	1016.472973716626	527.399649721548	1093.666182235655	1433.492547781639	352.080512019459	1193.540112780723	1348.082696334791	507.014842692732	1124.309050912644	1427.835553725438	683.000537774431	1106.482267698548	1490.865897005028	503.046489208222	1109.407554214009	939.388436738771	641.141760071534	1090.943550938831	959.863161035600	367.969943636349	1157.301856180297	745.208120244703	614.708631179346	1080.406753816489	635.155315526486	668.988334330532	1161.973547882434	587.754992595918	588.765211368935	1166.880540806995	499.316518243518	594.009521488750	1152.890247440204	761.266415164049	392.730047769614	1088.323921085884	639.176291243993	321.150989488651	1186.556609991860	565.620385715686	379.050647865904	1188.194826301800	475.663458836541	374.761115178788	1116.573693258412	415.524445987891	369.636403019567	972.160297410720	381.190059369626	324.651728535669	952.861048928244	255.026609567490	381.401250133634	1141.256910058538	410.503775118709	599.805677358617	1072.494163497489	303.771539956724	659.433860829031	1119.372390907571	211.520213007940	594.596248441111	989.684081651461	44.258492740305	562.569526880505	1163.260005401967	99.190900179317	593.435237843961	1076.447583241513	37.158293910729	633.013426463925	1283.881478714133	44.573032216186	612.083095221807	758.321217647043	191.215175680112	424.884469828542	813.242706056336	160.367307872744	336.093275844650	919.052133476350	164.736623461777	355.017671076578	995.728991246269	59.215856936186	305.326327902499	1115.467719250356	1091.871052248257	218.732203682101	1342.038069041116	978.511055137799	270.563600855808	1056.190061593818	1084.872568093395	805.932812182054	1113.400348586854	827.689645199872	805.018135540159	
